<svg width="24" height="24" viewBox="0 0 24 24" fill="none" xmlns="http://www.w3.org/2000/svg">
<path fill-rule="evenodd" clip-rule="evenodd" d="M12 0C5.37259 0 0 5.37258 0 12V24H12C18.6274 24 24 18.6274 24 12C24 5.37258 18.6274 0 12 0ZM18.7826 11.9478C18.7826 15.6938 15.7459 18.7304 12 18.7304C11.0272 18.7304 10.1023 18.5257 9.26599 18.1569L4.74783 19.2522L5.84768 14.807C5.44323 13.9381 5.21739 12.9694 5.21739 11.9478C5.21739 8.2019 8.25408 5.16522 12 5.16522C15.7459 5.16522 18.7826 8.2019 18.7826 11.9478Z" fill="#333333"/>
</svg>
