<svg width="24" height="24" viewBox="0 0 24 24" fill="none" xmlns="http://www.w3.org/2000/svg">
<circle cx="12" cy="12" r="12" fill="black"/>
<path d="M18.3331 7.31209C18.3331 7.31209 17.1036 6.00871 14.312 5.82007V6.23162C14.312 6.23162 15.8432 6.14255 17.7384 8.0107C16.3078 6.98006 14.267 6.33443 12 6.33443C9.73313 6.33443 7.69226 6.97996 6.26164 8.0107C8.15693 6.14255 9.68804 6.23162 9.68804 6.23162V5.82007C6.89649 6.00871 5.66703 7.31209 5.66703 7.31209C3.53988 10.0557 3.42004 16.0579 3.42004 16.0579C5.42373 18.4758 7.94128 18.1673 7.94128 18.1673L8.86605 16.8297C7.67348 16.5067 6.82184 15.765 6.30998 15.1875C7.73803 16.1981 9.7584 16.8297 12 16.8297C14.2417 16.8297 16.2621 16.1982 17.6901 15.1875C17.1782 15.7649 16.3266 16.5067 15.134 16.8297L16.0588 18.1673C16.0588 18.1673 18.5764 18.476 20.58 16.0579C20.5802 16.0578 20.4603 10.0557 18.3331 7.31209ZM9.32852 14.3602C8.52455 14.3602 7.87283 13.6668 7.87283 12.8113C7.87283 11.956 8.52455 11.2625 9.32852 11.2625C10.1325 11.2625 10.7842 11.956 10.7842 12.8113C10.7842 13.6667 10.1325 14.3602 9.32852 14.3602ZM14.6718 14.3602C13.8678 14.3602 13.2161 13.6668 13.2161 12.8113C13.2161 11.956 13.8678 11.2625 14.6718 11.2625C15.4757 11.2625 16.1274 11.956 16.1274 12.8113C16.1274 13.6667 15.4758 14.3602 14.6718 14.3602Z" fill="white"/>
</svg>
