<svg width="820" height="92" viewBox="0 0 820 92" fill="none" xmlns="http://www.w3.org/2000/svg">
<path d="M8.8265 25.1516L9.78906 23.8165C8.8265 23.3397 8.05645 22.5768 7.67142 21.6232C7.2864 20.5742 7.38266 19.5253 7.67142 18.5716C8.05645 17.7134 8.63398 16.9505 9.30778 16.4737C10.0778 15.9015 10.8479 15.5201 11.8104 15.3294C13.543 14.9479 15.3719 15.1386 17.1045 15.5201C21.436 16.3783 25.7676 17.618 30.0028 18.667C34.2381 19.6206 38.4734 20.8603 42.8049 21.4325C43.1899 21.5279 43.6712 21.6232 44.1525 21.6232V33.3527L37.7996 39.6465L44.1525 45.9404V62.0565C41.6498 63.2962 38.9547 64.1544 36.1632 64.4405C31.5429 65.0127 26.7301 64.1544 22.6874 61.8658C21.051 61.0075 19.5109 59.8632 18.1633 58.5281L35.1044 51.4714V22.4815L13.9281 31.4455C16.0457 26.8681 19.4147 22.9583 23.6499 20.1928L22.6874 18.7624C17.2008 19.716 12.0992 22.2907 8.1527 26.1052C4.2062 30.015 1.51103 35.0692 0.452216 40.5048C-1.18414 49.1827 1.70355 58.5281 7.76768 65.1081C13.8318 71.688 22.8799 75.4071 31.8317 75.121C36.7408 74.9303 41.5536 73.5952 45.7888 71.1158C50.0241 68.6364 53.4893 65.0127 55.7995 60.7214C57.8209 56.8116 58.8797 52.425 58.6872 48.0384H56.8583C55.1257 52.3296 52.3343 56.1441 48.7728 59.1003C48.099 59.5771 47.5215 60.0539 46.8477 60.5307V46.0358L53.2006 39.6465L46.8477 33.2573V21.8139C47.6177 21.8139 48.484 21.7186 49.2541 21.6232C51.4679 21.4325 53.5856 20.6696 55.3182 19.5253C57.4358 18.0948 58.9759 16.0923 59.6497 13.7082C60.2273 11.3242 59.9385 8.74941 58.7834 6.65146C57.7246 4.64887 55.992 3.02772 53.9706 1.97875C52.0455 0.929774 49.7353 0.357601 47.5215 0.0715202C46.3664 -0.0238401 45.115 -0.0238401 43.96 0.0715202V1.88339C44.9225 1.97875 45.9814 2.16948 47.0402 2.3602C48.099 2.64628 49.0616 2.93236 49.9279 3.5999C50.3129 3.88598 50.6979 4.36279 50.9867 4.8396C51.1792 5.22104 51.2754 5.79321 51.2754 6.27002C51.1792 6.84219 50.9867 7.22363 50.6979 7.70044C50.4091 8.08189 50.0241 8.36797 49.6391 8.65405C48.7728 9.0355 47.714 9.13086 46.7514 9.13086C43.8637 9.0355 41.0723 8.17725 38.2809 7.50972C34.6231 6.74683 31.1579 5.41177 27.5964 4.26743C25.19 3.50454 22.7836 2.83701 20.281 2.45556C17.7783 2.16948 15.2757 2.26484 12.8693 2.837C10.6554 3.40917 8.53773 4.45815 6.80512 5.88857C5.07251 7.31899 3.72492 9.22623 2.95487 11.3242C1.99231 13.8989 2.08857 16.8551 3.14739 19.4299C4.2062 22.0047 6.32384 24.1026 8.8265 25.1516ZM12.6767 34.6877L22.6874 30.4918V53.8554L16.3345 56.5255C14.7944 54.5229 13.543 52.2343 12.6767 49.8502C11.0404 44.9868 11.1366 39.5512 12.6767 34.6877Z" fill="#333333"/>
<path d="M83.1467 64.0591V40.5048L88.4408 35.546L94.2162 40.3141V63.1055C94.2162 67.0153 94.1199 70.9251 92.8686 74.6442C92.0985 76.9329 90.9435 79.0308 89.2109 80.7473C87.6708 82.1778 85.6494 83.2267 83.628 83.7036V85.9922C87.4783 86.5644 91.521 85.9922 95.0825 84.3711C98.5477 82.8453 101.435 80.3659 103.457 77.219C104.804 75.0257 105.767 72.5463 106.152 69.9715C106.633 67.3967 106.633 64.822 106.633 62.2472V37.3579L110.772 34.0202L109.136 31.9223L105.286 34.9738L95.0825 26.582L83.1467 37.7393V2.3602H81.3179L65.6281 13.3268V14.6618C66.3982 14.9479 67.072 15.234 67.842 15.6154C68.5158 15.9015 69.0933 16.3783 69.5746 16.9505C69.7671 17.332 69.9596 17.8088 70.0559 18.2856C70.2484 18.7624 70.2484 19.2392 70.2484 19.716V63.1055L63.7993 67.206L65.4356 69.3993L69.0933 67.1107L79.0077 75.5025L90.9435 67.206L89.2109 65.1081L86.2269 67.1107L83.1467 64.0591Z" fill="#333333"/>
<path d="M112.342 69.304L116.577 65.871L130.919 76.3607L150.748 60.4354L149.4 58.1467L138.716 66.3478L127.165 58.5281V54.4276L147.956 41.6491V41.1723L138.235 26.582L115.229 38.4068V63.5823L110.705 67.206L112.342 69.304ZM127.165 52.1389V34.8785L129.09 33.8295L137.368 45.7497L127.165 52.1389Z" fill="#333333"/>
<path d="M170.161 37.7393C169.583 40.5048 169.968 43.3656 171.123 45.845H172.952C172.76 44.9868 172.856 44.0332 173.241 43.1749C173.626 42.2213 174.396 41.3631 175.262 40.8862C175.744 40.6955 176.321 40.5048 176.802 40.4094C177.284 40.4094 177.861 40.4094 178.342 40.4094C179.209 40.4094 180.075 40.4094 180.941 40.4094C180.941 42.9842 180.941 45.6543 180.941 48.3244C180.941 50.1363 180.941 52.0435 180.556 53.8554C180.171 55.7626 179.401 57.4791 178.246 58.9096C177.38 60.0539 176.225 60.9122 174.974 61.4843H178.15C180.845 60.5307 183.54 59.1956 185.947 57.4791C188.353 55.858 190.471 53.8554 191.818 51.2806C192.492 50.0409 192.877 48.6105 193.07 47.2755C193.358 45.845 193.358 44.4146 193.358 42.9842V35.546V24.9609C193.358 21.5279 193.647 18.0948 194.899 14.8525C196.054 11.8963 197.786 9.22623 199.904 6.84219C200.77 5.79321 201.829 4.8396 202.888 3.98135C203.08 3.88598 203.177 3.79062 203.369 3.5999L203.562 2.16948C202.022 3.21845 200.385 3.98134 198.556 4.26743C197.209 4.55351 195.765 4.64887 194.417 4.45815C192.685 4.17206 190.952 3.5999 189.316 3.02772C187.679 2.55092 185.947 1.97875 184.214 1.88339C182.578 1.88339 180.941 2.16948 179.498 2.837C178.054 3.50454 176.706 4.45815 175.551 5.50713C172.471 8.36797 170.161 11.9917 168.139 15.6154H170.353C170.642 14.2804 171.605 13.0407 172.856 12.3732C173.915 11.7056 175.262 11.5149 176.61 11.6103C178.728 11.801 180.749 12.5639 182.867 13.0407C184.984 13.5175 187.102 13.7082 189.219 13.136C190.182 12.9453 191.048 12.5639 191.915 12.1824L187.968 15.4247C186.717 16.4737 185.465 17.618 184.407 18.8577C183.348 20.0974 182.578 21.5279 182 23.149C181.23 25.247 181.038 27.5356 180.941 29.8243C179.113 29.8243 177.187 30.015 175.551 30.7779C174.107 31.3501 172.856 32.3991 171.893 33.5434C171.027 34.7831 170.449 36.3089 170.161 37.7393ZM210.588 14.185C213.283 15.9015 216.46 16.9505 219.636 17.0459L200 39.6465L200.289 23.3397C200.385 20.5742 200.578 17.8088 201.444 15.4247C202.214 12.85 203.658 10.5613 205.39 8.55869C207.219 6.46074 209.337 4.55351 211.551 3.02772L210.781 1.88339L210.011 0.83441C207.604 2.55092 205.294 4.55351 203.369 6.74683C201.444 9.0355 199.808 11.6103 198.845 14.5665C197.882 17.4273 197.69 20.4789 197.594 23.3397L197.112 45.9404C197.112 47.2755 197.112 48.4198 196.824 49.5641C196.631 50.7085 196.342 51.8528 195.765 52.9018C194.802 54.9997 193.07 56.7163 191.145 58.3374C189.412 59.7678 187.583 61.0075 185.658 62.2472C180.749 64.2498 176.225 67.5875 172.856 71.688C171.412 73.5952 170.064 75.5025 169.102 77.6004H171.99C173.241 75.5978 174.974 73.9767 176.995 72.737C179.209 71.4019 181.808 70.5437 184.407 70.2576C187.006 69.8761 189.701 70.0669 192.3 70.639C196.535 71.5926 200.481 73.5952 203.947 76.17L217.326 65.7756C218.096 67.9689 219.155 70.1622 220.695 71.8787C222.139 73.6906 223.968 75.121 225.989 76.0746L240.716 64.5359V61.5797L234.075 66.6338C232.727 65.4895 231.572 64.1544 230.61 62.6287C229.262 60.5307 228.492 58.1467 227.818 55.6673C227.241 53.2832 226.759 50.8992 226.086 48.4198C225.315 45.7497 224.16 43.0796 222.62 40.6955C221.08 38.4068 219.059 36.3089 216.749 34.5924C214.631 33.162 212.321 32.0176 209.915 31.2547L222.428 16.9505C224.257 16.7598 225.989 16.1876 227.722 15.3294C230.128 14.0897 232.246 11.9917 233.497 9.51231C234.845 7.03291 235.23 4.17206 234.749 1.40658H233.401C232.92 3.21845 231.572 4.8396 229.936 5.79321C227.818 6.93755 225.315 7.03291 223.005 6.36538C220.888 5.79321 218.866 4.55351 217.422 2.837L205.583 16.8551L206.931 18.2856L210.588 14.185ZM192.877 60.34C194.995 58.6235 196.92 56.6209 198.171 54.0461C198.845 52.8064 199.326 51.4714 199.519 50.0409C199.808 48.7059 199.808 47.2755 199.808 46.0358L199.904 42.2213H200.289L201.54 40.8862C203.465 41.2677 205.39 42.1259 207.123 43.2703C209.529 44.9868 211.358 47.4662 212.61 50.1363C213.957 52.7111 214.727 55.5719 215.401 58.4328C215.786 60.34 216.171 62.2472 216.749 64.1544L213.957 66.2524C208.663 61.9611 201.54 59.7678 194.706 60.1493C194.032 60.2446 193.455 60.2446 192.877 60.34Z" fill="#333333"/>
<path d="M242.344 69.304L246.579 65.871L260.921 76.3607L280.75 60.4354L279.402 58.1467L268.718 66.3478L257.167 58.5281V54.4276L277.959 41.6491V41.1723L268.237 26.582L245.231 38.4068V63.5823L240.707 67.206L242.344 69.304ZM257.167 52.1389V34.8785L259.092 33.8295L267.37 45.7497L257.167 52.1389Z" fill="#333333"/>
<path d="M282.388 69.304L286.623 65.871L300.965 76.3607L320.794 60.4354L319.446 58.1467L308.762 66.3478L297.211 58.5281V54.4276L318.003 41.6491V41.1723L308.281 26.582L285.276 38.4068V63.5823L280.751 67.206L282.388 69.304ZM297.211 52.1389V34.8785L299.136 33.8295L307.414 45.7497L297.211 52.1389Z" fill="#333333"/>
<path d="M338.892 38.5022L343.127 35.3553L349.48 40.5048V68.8272C346.303 67.3967 343.127 65.9663 339.854 64.7266C339.565 64.6313 339.277 64.4405 338.892 64.3452V38.5022ZM327.726 63.0101L322.817 67.1107C324.453 67.3967 326.09 67.5875 327.726 67.9689V92H329.555L343.319 83.7989V82.4639C342.549 82.3685 341.779 82.0824 341.106 81.6056C340.528 81.1288 340.047 80.652 339.758 79.9845C339.373 79.4123 339.18 78.6494 338.988 77.9819C338.892 77.219 338.892 76.5514 338.892 75.7886V71.4019C341.202 72.3555 343.319 73.4999 345.437 74.6442C347.747 72.737 350.25 70.8298 352.753 69.0179C355.544 67.1107 358.432 65.2988 361.416 63.6776V37.0718L364.977 34.2109L363.341 32.113L360.357 34.497L351.02 26.3913L338.892 35.3553V33.6388C338.218 32.3037 337.448 31.064 336.485 30.015C335.33 28.68 333.983 27.4403 332.443 26.4867L320.796 34.2109L321.758 35.7367C322.432 35.2599 323.202 35.0692 323.972 35.0692C324.838 35.0692 325.608 35.3553 326.186 35.8321C326.763 36.2135 327.148 36.6903 327.437 37.2625C327.726 37.93 327.822 38.5976 327.726 39.1697V63.0101Z" fill="#333333"/>
<path d="M380.788 44.8914C383.483 42.9842 386.948 42.1259 390.317 42.5074C393.301 42.8888 396.189 44.2239 398.306 46.4172C401.194 49.3734 402.542 53.6647 402.349 57.7652C402.06 61.1982 400.905 64.6312 398.692 67.3014C396.574 69.9715 393.494 71.9741 390.125 72.5463C387.333 73.1184 384.446 72.6416 382.039 71.4019C379.537 70.0669 377.611 67.9689 376.553 65.3941C378.478 65.871 380.595 65.3941 382.232 64.1544C383.772 62.9147 384.831 61.0075 385.023 59.0049C385.119 57.0977 384.349 55.1905 383.002 53.76C381.654 52.3296 379.729 51.5667 377.804 51.4714C375.301 51.4714 372.991 52.7111 371.451 54.5229C369.911 56.4302 369.141 58.8142 369.333 61.1982C369.333 63.4869 370.2 65.6802 371.355 67.5875C372.606 69.4947 374.242 71.0205 376.168 72.2602C379.922 74.7396 384.446 75.8839 389.066 75.8839C394.264 75.8839 399.462 74.4535 403.986 71.8787C408.606 69.2086 412.456 65.3941 414.67 60.6261C416.691 56.7163 417.461 52.1389 416.788 47.7523C416.114 43.461 413.996 39.2651 410.724 36.2135C407.258 33.0666 402.542 31.1594 397.825 31.064L411.301 20.0974L412.841 7.31899H373.184L370.681 20.2882H405.237L377.708 42.6981L380.788 44.8914Z" fill="#333333"/>
<path d="M447.93 63.4869L442.732 67.0153L438.881 64.0591V35.9274C440.325 37.2625 441.865 38.3115 443.598 38.979C444.753 39.4558 446.004 39.8373 447.159 39.8373C448.411 39.9326 449.662 39.6465 450.817 39.1697C452.261 38.5022 453.416 37.3579 454.282 36.1182C455.052 34.7831 455.63 33.3527 456.111 31.8269C456.593 30.1104 456.881 28.2985 457.074 26.4867H454.186C453.705 27.2495 453.031 27.9171 452.261 28.2985C451.491 28.68 450.625 28.8707 449.662 28.8707C448.026 28.8707 446.389 27.9171 445.523 26.4867H444.561L437.823 34.1156L430.796 26.582L417.898 35.2599L419.245 37.0718L422.903 34.7831L426.176 38.8836V64.0591L420.112 68.1596L421.555 69.9715L424.732 67.6828L435.32 75.8839L449.758 65.5849L447.93 63.4869Z" fill="#333333"/>
<path d="M459.916 67.7782L468.675 76.4561L477.338 67.9689L468.482 59.1957L459.916 67.7782Z" fill="#333333"/>
<path d="M489.845 48.8966L490.327 47.5615C489.653 47.0847 489.171 46.3218 489.075 45.4636C489.075 44.8914 489.268 44.3193 489.46 43.9378C489.749 43.461 490.134 43.0796 490.615 42.7935C491.097 42.5074 491.674 42.3167 492.155 42.3167C492.733 42.2213 493.214 42.2213 493.792 42.2213C494.177 42.2213 494.466 42.2213 494.851 42.2213V57.8606C493.118 57.8606 491.482 58.0513 489.845 58.5281C487.246 59.291 484.84 60.8168 483.107 62.8194C481.279 65.0127 480.123 67.8735 480.22 70.8298C480.22 73.6906 481.279 76.5514 483.204 78.7448C484.551 80.2705 486.38 81.5102 488.305 82.2731C490.327 82.9407 492.54 83.1314 494.562 82.7499L495.043 81.0334C493.888 81.1288 492.733 80.9381 491.674 80.3659C490.615 79.8891 489.749 79.1262 489.172 78.0772C488.883 77.5051 488.69 76.7422 488.594 76.0746C488.594 75.3117 488.69 74.6442 488.979 73.9767C489.268 73.3092 489.749 72.737 490.327 72.3555C490.904 71.8787 491.578 71.5926 492.252 71.4973C493.696 71.2112 495.236 71.4019 496.487 71.9741C498.412 72.737 500.145 73.9767 501.492 75.4071L513.909 61.7704L512.562 60.4354L509.289 64.0591C506.209 61.0075 502.166 58.8142 497.835 58.1467C497.738 58.0513 497.642 58.0513 497.546 58.0513V20.0974C497.738 20.4789 498.027 20.8603 498.316 21.3371L501.589 26.9635L530.562 75.4071H534.219V19.3345C535.663 19.2392 537.203 18.9531 538.551 18.4763C540.38 17.8088 542.016 16.7598 543.364 15.4247C544.904 13.8989 545.963 11.801 546.348 9.70303C546.733 7.50972 546.348 5.22104 545.289 3.21845H543.941C543.845 4.36278 543.364 5.41177 542.594 6.27002C541.92 7.12827 540.861 7.70044 539.802 7.98653C538.551 8.36797 537.3 8.27261 536.144 7.98653C534.989 7.60508 533.834 7.03291 532.872 6.36538C532.005 5.69785 531.332 4.93496 530.658 4.17206L528.733 4.0767L516.797 17.8088L518.145 19.2392L521.802 15.1386C523.054 16.3783 524.594 17.3319 526.134 17.9995C527.963 18.7624 529.888 19.2392 531.813 19.3345C532.005 24.6748 532.005 29.9197 532.005 35.1646C531.909 40.4094 531.813 45.6543 531.524 50.8038L508.326 12.4685C507.075 10.6566 505.92 8.65405 504.572 7.03291C503.225 5.41177 501.492 4.26743 499.567 3.69526C497.161 2.93237 494.369 3.02773 491.963 3.98135C489.557 4.93496 487.535 6.65146 486.091 8.84478C484.359 11.6103 483.781 15.1386 484.455 18.3809L486.284 18.7624C486.38 18.1902 486.573 17.618 486.765 16.9505C487.054 16.283 487.439 15.6154 487.92 15.0433C488.401 14.4711 489.075 13.9943 489.749 13.8036C490.615 13.6129 491.578 13.7082 492.348 14.185C493.118 14.5665 493.792 15.1386 494.369 15.8062C494.466 15.9969 494.658 16.1876 494.851 16.3783V29.2521C493.696 29.2521 492.444 29.4429 491.385 29.7289C489.46 30.3011 487.824 31.2547 486.38 32.4944C484.166 34.6877 482.819 37.8347 483.107 40.8862C483.3 42.6981 484.07 44.51 485.225 45.9404C486.476 47.3708 488.113 48.4198 489.845 48.8966Z" fill="#333333"/>
<path d="M543.238 69.304L547.473 65.871L561.815 76.3607L581.644 60.4354L580.297 58.1467L569.612 66.3478L558.062 58.5281V54.4276L578.853 41.6491V41.1723L569.131 26.582L546.126 38.4068V63.5823L541.602 67.206L543.238 69.304ZM558.062 52.1389V34.8785L559.987 33.8295L568.265 45.7497L558.062 52.1389Z" fill="#333333"/>
<path d="M600.993 64.0591V34.497H607.924L612.448 29.2521H600.993V18.2856H599.164L583.475 33.9249V35.2599C584.245 35.2599 585.015 35.3553 585.689 35.7367C586.362 36.0228 586.94 36.4996 587.421 37.0718C587.614 37.5486 587.806 37.93 587.902 38.4068C587.999 38.8837 588.095 39.3605 588.095 39.8373V63.1055L581.646 67.206L582.993 69.1132L586.651 66.8246L596.854 75.5025L610.041 68.6364L608.694 66.8246L605.517 68.5411L600.993 64.0591Z" fill="#333333"/>
<path d="M648.191 26.4867L638.084 34.7831L642.416 38.5976V67.6828L640.587 68.7318L632.983 63.773V43.7471C632.983 41.5538 632.983 39.3605 632.501 37.2625C632.02 35.0692 630.865 33.0666 629.229 31.6362C628.266 30.7779 627.207 30.1104 626.148 29.3475C624.993 28.68 623.935 27.9171 623.068 26.9635C622.106 26.0098 621.528 24.7701 621.432 23.5304C621.336 22.1954 621.817 20.9557 622.683 20.0021C623.357 19.2392 624.32 18.7624 625.186 18.4763C625.378 18.3809 625.475 18.3809 625.571 18.3809L625.09 16.4737C622.876 16.7598 620.758 17.332 618.833 18.3809C616.908 19.4299 615.175 20.9557 613.924 22.7676C612.961 24.2933 612.288 26.0099 612.384 27.8217C612.384 29.5382 612.961 31.3501 614.116 32.7805C615.175 34.2109 616.523 35.3553 617.774 36.595C619.025 37.8347 620.084 39.3605 620.566 41.077C620.854 42.1259 620.951 43.2703 620.951 44.4146C620.951 45.559 620.951 46.7033 620.951 47.7523V65.7756L616.619 69.2086L618.352 71.3066L621.336 68.9225L632.309 76.8375L644.437 70.1622L653.774 76.8375L676.105 65.1081V35.0692L681.784 30.4918L680.052 28.3939L675.913 31.7315L669.945 26.4867L659.838 34.7831L664.073 38.5976V67.4921L661.956 68.7318L654.352 63.773L654.448 37.8347L658.009 34.9738L648.191 26.4867Z" fill="#333333"/>
<path d="M699.082 60.8168V33.448L710.151 40.6955V68.1596L699.082 60.8168ZM683.392 69.0179L687.435 65.7756C691.863 69.0179 696.387 72.2602 700.911 75.5025L722.183 62.6287V36.595L708.323 26.1052L686.665 38.4068C686.665 46.6079 686.665 54.809 686.665 63.0101L681.756 66.9199L683.392 69.0179Z" fill="#333333"/>
<path d="M756.062 63.4869L750.864 67.0153L747.014 64.0591V35.9274C748.458 37.2625 749.998 38.3115 751.73 38.979C752.885 39.4558 754.137 39.8373 755.292 39.8373C756.543 39.9326 757.794 39.6465 758.949 39.1697C760.393 38.5022 761.548 37.3579 762.415 36.1182C763.185 34.7831 763.762 33.3527 764.244 31.8269C764.725 30.1104 765.014 28.2985 765.206 26.4867H762.318C761.837 27.2495 761.163 27.9171 760.393 28.2985C759.623 28.68 758.757 28.8707 757.794 28.8707C756.158 28.8707 754.522 27.9171 753.655 26.4867H752.693L745.955 34.1156L738.928 26.582L726.03 35.2599L727.378 37.0718L731.035 34.7831L734.308 38.8836V64.0591L728.244 68.1596L729.688 69.9715L732.864 67.6828L743.452 75.8839L757.891 65.5849L756.062 63.4869Z" fill="#333333"/>
<path d="M784.481 64.0591V2.3602H782.653L766.963 13.3268V14.6618C767.733 14.9479 768.407 15.234 769.177 15.6154C769.85 15.9015 770.428 16.3783 770.909 16.9505C771.102 17.332 771.294 17.8088 771.391 18.2856C771.583 18.7624 771.583 19.2392 771.583 19.716V63.1055L765.134 67.206L766.482 69.1132L770.139 66.8246L780.342 75.5025L792.278 67.206L790.931 65.3941L788.139 67.6828L784.481 64.0591ZM818.171 64.5359L814.032 67.206L795.07 39.3605L796.032 37.5486C797.38 38.7883 799.016 39.7419 800.845 40.2187C802.289 40.6955 803.829 40.7909 805.369 40.6002C806.909 40.4094 808.353 39.8373 809.701 38.979C811.048 38.1208 812.107 36.8811 812.973 35.4506C813.84 34.1156 814.513 32.5898 814.995 31.064C815.38 29.7289 815.668 28.3939 815.861 27.0588H814.032C813.455 28.1078 812.588 28.9661 811.529 29.6336C810.471 30.3011 809.219 30.6826 807.968 30.6826C806.717 30.6826 805.369 30.3965 804.214 29.7289C803.155 29.1568 802.193 28.1078 801.519 27.0588H800.652L786.31 48.992L805.273 76.3607L820 66.8246L818.171 64.5359Z" fill="#333333"/>
</svg>
