<svg width="24" height="24" viewBox="0 0 24 24" fill="none" xmlns="http://www.w3.org/2000/svg">
<circle cx="12" cy="12" r="12" fill="black"/>
<path d="M18.1087 7.6193L19.2648 6.51493V6.27319H15.2598L12.4054 13.3672L9.15809 6.27319H4.95868V6.51493L6.30918 8.13833C6.44079 8.25829 6.50961 8.43371 6.4921 8.61034V14.99C6.53376 15.2197 6.4589 15.456 6.29711 15.623L4.77576 17.464V17.7027H9.08926V17.461L7.56792 15.623C7.4031 15.4554 7.32522 15.2233 7.35843 14.99V9.47177L11.1449 17.7057H11.585L14.8408 9.47177V16.0311C14.8408 16.2041 14.8408 16.2397 14.7273 16.353L13.5561 17.4845V17.7268H19.2382V17.4851L18.1093 16.3813C18.0103 16.3066 17.959 16.1812 17.9801 16.0594V7.9412C17.959 7.81883 18.0097 7.69344 18.1087 7.6193Z" fill="white"/>
</svg>
